<?xml version="1.0" encoding="utf-8" standalone="no"?>
<!DOCTYPE svg PUBLIC "-//W3C//DTD SVG 1.1//EN"
  "http://www.w3.org/Graphics/SVG/1.1/DTD/svg11.dtd">
<svg xmlns:xlink="http://www.w3.org/1999/xlink" width="864pt" height="504pt" viewBox="0 0 864 504" xmlns="http://www.w3.org/2000/svg" version="1.1">
 <metadata>
  <rdf:RDF xmlns:dc="http://purl.org/dc/elements/1.1/" xmlns:cc="http://creativecommons.org/ns#" xmlns:rdf="http://www.w3.org/1999/02/22-rdf-syntax-ns#">
   <cc:Work>
    <dc:type rdf:resource="http://purl.org/dc/dcmitype/StillImage"/>
    <dc:date>2025-09-29T10:23:42.349215</dc:date>
    <dc:format>image/svg+xml</dc:format>
    <dc:creator>
     <cc:Agent>
      <dc:title>Matplotlib v3.9.4, https://matplotlib.org/</dc:title>
     </cc:Agent>
    </dc:creator>
   </cc:Work>
  </rdf:RDF>
 </metadata>
 <defs>
  <style type="text/css">*{stroke-linejoin: round; stroke-linecap: butt}</style>
 </defs>
 <g id="figure_1">
  <g id="patch_1">
   <path d="M 0 504 
L 864 504 
L 864 0 
L 0 0 
z
" style="fill: #ffffff"/>
  </g>
  <g id="axes_1">
   <g id="patch_2">
    <path d="M 59.195 460.24 
L 853.2 460.24 
L 853.2 27.6 
L 59.195 27.6 
z
" style="fill: #ffffff"/>
   </g>
   <g id="PolyCollection_1">
    <defs>
     <path id="m693a293e46" d="M 160.906384 -63.425455 
L 95.286136 -63.425455 
L 95.38583 -67.398274 
L 97.474816 -71.371093 
L 101.179202 -75.343912 
L 105.878848 -79.316731 
L 110.876594 -83.28955 
L 115.564194 -87.262369 
L 119.532023 -91.235188 
L 122.600548 -95.208007 
L 124.784722 -99.180826 
L 126.222529 -103.153646 
L 127.100722 -107.126465 
L 127.599574 -111.099284 
L 127.863568 -115.072103 
L 127.993894 -119.044922 
L 128.053973 -123.017741 
L 128.079857 -126.99056 
L 128.090285 -130.963379 
L 128.094217 -134.936198 
L 128.095604 -138.909017 
L 128.096062 -142.881837 
L 128.096204 -146.854656 
L 128.096245 -150.827475 
L 128.096257 -154.800294 
L 128.096259 -158.773113 
L 128.09626 -162.745932 
L 128.09626 -166.718751 
L 128.09626 -170.69157 
L 128.09626 -174.664389 
L 128.096259 -178.637208 
L 128.096255 -182.610028 
L 128.096244 -186.582847 
L 128.096214 -190.555666 
L 128.096137 -194.528485 
L 128.095949 -198.501304 
L 128.09552 -202.474123 
L 128.094604 -206.446942 
L 128.09277 -210.419761 
L 128.089326 -214.39258 
L 128.083257 -218.365399 
L 128.073215 -222.338219 
L 128.057597 -226.311038 
L 128.034735 -230.283857 
L 128.003187 -234.256676 
L 127.962068 -238.229495 
L 127.91134 -242.202314 
L 127.851964 -246.175133 
L 127.785872 -250.147952 
L 127.715749 -254.120771 
L 127.64467 -258.09359 
L 127.57567 -262.06641 
L 127.511349 -266.039229 
L 127.453614 -270.012048 
L 127.403654 -273.984867 
L 127.362175 -277.957686 
L 127.329785 -281.930505 
L 127.307326 -285.903324 
L 127.295939 -289.876143 
L 127.296765 -293.848962 
L 127.310408 -297.821781 
L 127.33645 -301.794601 
L 127.373312 -305.76742 
L 127.418582 -309.740239 
L 127.46967 -313.713058 
L 127.524438 -317.685877 
L 127.581513 -321.658696 
L 127.64015 -325.631515 
L 127.699791 -329.604334 
L 127.759599 -333.577153 
L 127.81821 -337.549972 
L 127.873821 -341.522792 
L 127.92452 -345.495611 
L 127.968695 -349.46843 
L 128.005354 -353.441249 
L 128.034262 -357.414068 
L 128.055884 -361.386887 
L 128.071201 -365.359706 
L 128.081454 -369.332525 
L 128.087914 -373.305344 
L 128.091695 -377.278163 
L 128.093649 -381.250983 
L 128.09432 -385.223802 
L 128.093945 -389.196621 
L 128.092481 -393.16944 
L 128.089655 -397.142259 
L 128.085054 -401.115078 
L 128.078247 -405.087897 
L 128.068954 -409.060716 
L 128.057222 -413.033535 
L 128.043538 -417.006354 
L 128.028825 -420.979174 
L 128.01429 -424.951993 
L 128.001162 -428.924812 
L 127.99042 -432.897631 
L 127.982642 -436.87045 
L 127.978036 -440.843269 
L 127.976597 -444.816088 
L 127.9783 -448.788907 
L 127.983175 -452.761726 
L 127.991214 -456.734545 
L 128.201307 -456.734545 
L 128.201307 -456.734545 
L 128.209346 -452.761726 
L 128.21422 -448.788907 
L 128.215924 -444.816088 
L 128.214485 -440.843269 
L 128.209878 -436.87045 
L 128.202101 -432.897631 
L 128.191359 -428.924812 
L 128.17823 -424.951993 
L 128.163696 -420.979174 
L 128.148983 -417.006354 
L 128.135298 -413.033535 
L 128.123566 -409.060716 
L 128.114274 -405.087897 
L 128.107466 -401.115078 
L 128.102865 -397.142259 
L 128.10004 -393.16944 
L 128.098575 -389.196621 
L 128.0982 -385.223802 
L 128.098871 -381.250983 
L 128.100825 -377.278163 
L 128.104606 -373.305344 
L 128.111066 -369.332525 
L 128.12132 -365.359706 
L 128.136636 -361.386887 
L 128.158259 -357.414068 
L 128.187166 -353.441249 
L 128.223826 -349.46843 
L 128.268001 -345.495611 
L 128.3187 -341.522792 
L 128.374311 -337.549972 
L 128.432922 -333.577153 
L 128.492729 -329.604334 
L 128.552371 -325.631515 
L 128.611008 -321.658696 
L 128.668082 -317.685877 
L 128.722851 -313.713058 
L 128.773939 -309.740239 
L 128.819209 -305.76742 
L 128.85607 -301.794601 
L 128.882112 -297.821781 
L 128.895756 -293.848962 
L 128.896582 -289.876143 
L 128.885194 -285.903324 
L 128.862735 -281.930505 
L 128.830346 -277.957686 
L 128.788867 -273.984867 
L 128.738907 -270.012048 
L 128.681171 -266.039229 
L 128.616851 -262.06641 
L 128.547851 -258.09359 
L 128.476771 -254.120771 
L 128.406648 -250.147952 
L 128.340556 -246.175133 
L 128.281181 -242.202314 
L 128.230453 -238.229495 
L 128.189334 -234.256676 
L 128.157786 -230.283857 
L 128.134923 -226.311038 
L 128.119305 -222.338219 
L 128.109263 -218.365399 
L 128.103195 -214.39258 
L 128.099751 -210.419761 
L 128.097917 -206.446942 
L 128.097001 -202.474123 
L 128.096572 -198.501304 
L 128.096384 -194.528485 
L 128.096306 -190.555666 
L 128.096276 -186.582847 
L 128.096266 -182.610028 
L 128.096262 -178.637208 
L 128.096261 -174.664389 
L 128.09626 -170.69157 
L 128.09626 -166.718751 
L 128.096261 -162.745932 
L 128.096261 -158.773113 
L 128.096264 -154.800294 
L 128.096275 -150.827475 
L 128.096316 -146.854656 
L 128.096458 -142.881837 
L 128.096917 -138.909017 
L 128.098304 -134.936198 
L 128.102235 -130.963379 
L 128.112664 -126.99056 
L 128.138548 -123.017741 
L 128.198627 -119.044922 
L 128.328952 -115.072103 
L 128.592947 -111.099284 
L 129.091798 -107.126465 
L 129.969992 -103.153646 
L 131.407799 -99.180826 
L 133.591973 -95.208007 
L 136.660498 -91.235188 
L 140.628327 -87.262369 
L 145.315926 -83.28955 
L 150.313673 -79.316731 
L 155.013318 -75.343912 
L 158.717705 -71.371093 
L 160.806691 -67.398274 
L 160.906384 -63.425455 
z
" style="stroke: #000000; stroke-opacity: 0.9"/>
    </defs>
    <g clip-path="url(#p2643796128)">
     <use xlink:href="#m693a293e46" x="0" y="504" style="fill: #a6cee3; fill-opacity: 0.9; stroke: #000000; stroke-opacity: 0.9"/>
    </g>
   </g>
   <g id="PolyCollection_2">
    <defs>
     <path id="md633864668" d="M 292.11614 -63.46737 
L 226.557373 -63.46737 
L 226.526632 -66.655648 
L 227.167221 -69.843927 
L 228.440094 -73.032205 
L 230.269219 -76.220484 
L 232.549091 -79.408762 
L 235.154798 -82.59704 
L 237.953291 -85.785319 
L 240.814463 -88.973597 
L 243.620774 -92.161876 
L 246.274494 -95.350154 
L 248.702052 -98.538432 
L 250.855453 -101.726711 
L 252.711083 -104.914989 
L 254.266527 -108.103267 
L 255.536127 -111.291546 
L 256.546053 -114.479824 
L 257.329503 -117.668103 
L 257.922523 -120.856381 
L 258.360711 -124.044659 
L 258.6769 -127.232938 
L 258.899778 -130.421216 
L 259.053291 -133.609495 
L 259.156633 -136.797773 
L 259.224639 -139.986051 
L 259.268395 -143.17433 
L 259.295926 -146.362608 
L 259.312866 -149.550887 
L 259.32306 -152.739165 
L 259.329058 -155.927443 
L 259.332506 -159.115722 
L 259.334436 -162.304 
L 259.335477 -165.492279 
L 259.335999 -168.680557 
L 259.336209 -171.868835 
L 259.336209 -175.057114 
L 259.336038 -178.245392 
L 259.335686 -181.43367 
L 259.335107 -184.621949 
L 259.334222 -187.810227 
L 259.332919 -190.998506 
L 259.331048 -194.186784 
L 259.328421 -197.375062 
L 259.32481 -200.563341 
L 259.319944 -203.751619 
L 259.313515 -206.939898 
L 259.305178 -210.128176 
L 259.294562 -213.316454 
L 259.28127 -216.504733 
L 259.264892 -219.693011 
L 259.245003 -222.88129 
L 259.221168 -226.069568 
L 259.192936 -229.257846 
L 259.159838 -232.446125 
L 259.121382 -235.634403 
L 259.077053 -238.822681 
L 259.026329 -242.01096 
L 258.968704 -245.199238 
L 258.903733 -248.387517 
L 258.8311 -251.575795 
L 258.7507 -254.764073 
L 258.662724 -257.952352 
L 258.567757 -261.14063 
L 258.466846 -264.328909 
L 258.361549 -267.517187 
L 258.253943 -270.705465 
L 258.146576 -273.893744 
L 258.042384 -277.082022 
L 257.944543 -280.270301 
L 257.856297 -283.458579 
L 257.780761 -286.646857 
L 257.720711 -289.835136 
L 257.678399 -293.023414 
L 257.655385 -296.211693 
L 257.652417 -299.399971 
L 257.66937 -302.588249 
L 257.705241 -305.776528 
L 257.758202 -308.964806 
L 257.825724 -312.153084 
L 257.90474 -315.341363 
L 257.99185 -318.529641 
L 258.083551 -321.71792 
L 258.176457 -324.906198 
L 258.267515 -328.094476 
L 258.354167 -331.282755 
L 258.434479 -334.471033 
L 258.507194 -337.659312 
L 258.571734 -340.84759 
L 258.628142 -344.035868 
L 258.676983 -347.224147 
L 258.719213 -350.412425 
L 258.756033 -353.600704 
L 258.788755 -356.788982 
L 258.818675 -359.97726 
L 258.846974 -363.165539 
L 258.87464 -366.353817 
L 258.902433 -369.542096 
L 258.930859 -372.730374 
L 258.960173 -375.918652 
L 258.990401 -379.106931 
L 259.683111 -379.106931 
L 259.683111 -379.106931 
L 259.713339 -375.918652 
L 259.742653 -372.730374 
L 259.771079 -369.542096 
L 259.798872 -366.353817 
L 259.826539 -363.165539 
L 259.854837 -359.97726 
L 259.884757 -356.788982 
L 259.91748 -353.600704 
L 259.9543 -350.412425 
L 259.996529 -347.224147 
L 260.04537 -344.035868 
L 260.101778 -340.84759 
L 260.166318 -337.659312 
L 260.239033 -334.471033 
L 260.319345 -331.282755 
L 260.405998 -328.094476 
L 260.497055 -324.906198 
L 260.589962 -321.71792 
L 260.681662 -318.529641 
L 260.768773 -315.341363 
L 260.847788 -312.153084 
L 260.91531 -308.964806 
L 260.968272 -305.776528 
L 261.004142 -302.588249 
L 261.021096 -299.399971 
L 261.018128 -296.211693 
L 260.995113 -293.023414 
L 260.952801 -289.835136 
L 260.892752 -286.646857 
L 260.817215 -283.458579 
L 260.72897 -280.270301 
L 260.631128 -277.082022 
L 260.526936 -273.893744 
L 260.41957 -270.705465 
L 260.311963 -267.517187 
L 260.206666 -264.328909 
L 260.105755 -261.14063 
L 260.010788 -257.952352 
L 259.922813 -254.764073 
L 259.842412 -251.575795 
L 259.76978 -248.387517 
L 259.704809 -245.199238 
L 259.647183 -242.01096 
L 259.596459 -238.822681 
L 259.552131 -235.634403 
L 259.513674 -232.446125 
L 259.480576 -229.257846 
L 259.452344 -226.069568 
L 259.428509 -222.88129 
L 259.40862 -219.693011 
L 259.392242 -216.504733 
L 259.378951 -213.316454 
L 259.368334 -210.128176 
L 259.359998 -206.939898 
L 259.353568 -203.751619 
L 259.348703 -200.563341 
L 259.345091 -197.375062 
L 259.342465 -194.186784 
L 259.340594 -190.998506 
L 259.339291 -187.810227 
L 259.338406 -184.621949 
L 259.337827 -181.43367 
L 259.337474 -178.245392 
L 259.337303 -175.057114 
L 259.337304 -171.868835 
L 259.337513 -168.680557 
L 259.338035 -165.492279 
L 259.339076 -162.304 
L 259.341006 -159.115722 
L 259.344454 -155.927443 
L 259.350452 -152.739165 
L 259.360646 -149.550887 
L 259.377587 -146.362608 
L 259.405117 -143.17433 
L 259.448874 -139.986051 
L 259.51688 -136.797773 
L 259.620221 -133.609495 
L 259.773734 -130.421216 
L 259.996613 -127.232938 
L 260.312802 -124.044659 
L 260.750989 -120.856381 
L 261.344009 -117.668103 
L 262.127459 -114.479824 
L 263.137385 -111.291546 
L 264.406986 -108.103267 
L 265.962429 -104.914989 
L 267.81806 -101.726711 
L 269.97146 -98.538432 
L 272.399018 -95.350154 
L 275.052738 -92.161876 
L 277.85905 -88.973597 
L 280.720222 -85.785319 
L 283.518715 -82.59704 
L 286.124422 -79.408762 
L 288.404294 -76.220484 
L 290.233418 -73.032205 
L 291.506291 -69.843927 
L 292.14688 -66.655648 
L 292.11614 -63.46737 
z
" style="stroke: #000000; stroke-opacity: 0.9"/>
    </defs>
    <g clip-path="url(#p2643796128)">
     <use xlink:href="#md633864668" x="0" y="504" style="fill: #a6cee3; fill-opacity: 0.9; stroke: #000000; stroke-opacity: 0.9"/>
    </g>
   </g>
   <g id="PolyCollection_3">
    <defs>
     <path id="m8d4107b11e" d="M 423.387376 -63.456204 
L 357.767128 -63.456204 
L 357.775678 -66.758952 
L 358.14037 -70.061699 
L 358.849368 -73.364447 
L 359.879914 -76.667195 
L 361.199543 -79.969942 
L 362.767779 -83.27269 
L 364.538198 -86.575438 
L 366.460697 -89.878185 
L 368.483831 -93.180933 
L 370.557058 -96.483681 
L 372.632757 -99.786428 
L 374.667924 -103.089176 
L 376.625457 -106.391924 
L 378.475006 -109.694671 
L 380.193375 -112.997419 
L 381.764516 -116.300167 
L 383.179162 -119.602914 
L 384.434172 -122.905662 
L 385.53168 -126.20841 
L 386.478116 -129.511157 
L 387.283189 -132.813905 
L 387.958893 -136.116653 
L 388.518594 -139.4194 
L 388.976232 -142.722148 
L 389.345659 -146.024896 
L 389.640131 -149.327643 
L 389.871939 -152.630391 
L 390.052171 -155.933139 
L 390.190591 -159.235886 
L 390.295611 -162.538634 
L 390.374331 -165.841382 
L 390.43263 -169.144129 
L 390.475289 -172.446877 
L 390.50613 -175.749625 
L 390.528155 -179.052372 
L 390.543688 -182.35512 
L 390.554494 -185.657868 
L 390.561893 -188.960615 
L 390.566856 -192.263363 
L 390.570078 -195.566111 
L 390.572045 -198.868858 
L 390.573081 -202.171606 
L 390.573386 -205.474354 
L 390.573063 -208.777101 
L 390.572132 -212.079849 
L 390.570548 -215.382597 
L 390.568205 -218.685344 
L 390.564934 -221.988092 
L 390.560511 -225.29084 
L 390.554648 -228.593587 
L 390.546997 -231.896335 
L 390.537143 -235.199083 
L 390.524609 -238.50183 
L 390.508855 -241.804578 
L 390.489289 -245.107326 
L 390.465276 -248.410073 
L 390.436158 -251.712821 
L 390.401273 -255.015569 
L 390.359987 -258.318316 
L 390.311728 -261.621064 
L 390.256027 -264.923812 
L 390.192556 -268.226559 
L 390.121175 -271.529307 
L 390.041971 -274.832055 
L 389.955295 -278.134802 
L 389.861791 -281.43755 
L 389.76241 -284.740298 
L 389.658415 -288.043045 
L 389.551366 -291.345793 
L 389.443085 -294.648541 
L 389.335608 -297.951288 
L 389.231118 -301.254036 
L 389.13186 -304.556784 
L 389.040048 -307.859531 
L 388.957771 -311.162279 
L 388.886895 -314.465027 
L 388.828967 -317.767774 
L 388.785147 -321.070522 
L 388.756144 -324.37327 
L 388.742185 -327.676017 
L 388.743007 -330.978765 
L 388.757876 -334.281513 
L 388.785636 -337.58426 
L 388.824779 -340.887008 
L 388.873537 -344.189756 
L 388.929977 -347.492503 
L 388.992118 -350.795251 
L 389.058028 -354.097999 
L 389.125922 -357.400746 
L 389.194245 -360.703494 
L 389.261725 -364.006242 
L 389.32741 -367.308989 
L 389.390679 -370.611737 
L 389.451227 -373.914485 
L 389.509031 -377.217232 
L 389.564296 -380.51998 
L 389.617395 -383.822728 
L 389.668802 -387.125475 
L 389.719019 -390.428223 
L 391.435485 -390.428223 
L 391.435485 -390.428223 
L 391.485702 -387.125475 
L 391.537109 -383.822728 
L 391.590208 -380.51998 
L 391.645474 -377.217232 
L 391.703277 -373.914485 
L 391.763825 -370.611737 
L 391.827094 -367.308989 
L 391.892779 -364.006242 
L 391.960259 -360.703494 
L 392.028582 -357.400746 
L 392.096476 -354.097999 
L 392.162386 -350.795251 
L 392.224527 -347.492503 
L 392.280967 -344.189756 
L 392.329725 -340.887008 
L 392.368868 -337.58426 
L 392.396629 -334.281513 
L 392.411497 -330.978765 
L 392.412319 -327.676017 
L 392.39836 -324.37327 
L 392.369357 -321.070522 
L 392.325537 -317.767774 
L 392.26761 -314.465027 
L 392.196733 -311.162279 
L 392.114456 -307.859531 
L 392.022645 -304.556784 
L 391.923386 -301.254036 
L 391.818896 -297.951288 
L 391.711419 -294.648541 
L 391.603139 -291.345793 
L 391.496089 -288.043045 
L 391.392094 -284.740298 
L 391.292713 -281.43755 
L 391.199209 -278.134802 
L 391.112533 -274.832055 
L 391.033329 -271.529307 
L 390.961948 -268.226559 
L 390.898477 -264.923812 
L 390.842776 -261.621064 
L 390.794517 -258.318316 
L 390.753231 -255.015569 
L 390.718346 -251.712821 
L 390.689228 -248.410073 
L 390.665215 -245.107326 
L 390.645649 -241.804578 
L 390.629895 -238.50183 
L 390.617361 -235.199083 
L 390.607507 -231.896335 
L 390.599856 -228.593587 
L 390.593993 -225.29084 
L 390.58957 -221.988092 
L 390.5863 -218.685344 
L 390.583956 -215.382597 
L 390.582372 -212.079849 
L 390.581441 -208.777101 
L 390.581118 -205.474354 
L 390.581423 -202.171606 
L 390.582459 -198.868858 
L 390.584426 -195.566111 
L 390.587648 -192.263363 
L 390.592611 -188.960615 
L 390.60001 -185.657868 
L 390.610816 -182.35512 
L 390.626349 -179.052372 
L 390.648374 -175.749625 
L 390.679215 -172.446877 
L 390.721874 -169.144129 
L 390.780173 -165.841382 
L 390.858893 -162.538634 
L 390.963913 -159.235886 
L 391.102333 -155.933139 
L 391.282565 -152.630391 
L 391.514373 -149.327643 
L 391.808845 -146.024896 
L 392.178272 -142.722148 
L 392.63591 -139.4194 
L 393.195611 -136.116653 
L 393.871315 -132.813905 
L 394.676388 -129.511157 
L 395.622824 -126.20841 
L 396.720332 -122.905662 
L 397.975343 -119.602914 
L 399.389988 -116.300167 
L 400.961129 -112.997419 
L 402.679499 -109.694671 
L 404.529047 -106.391924 
L 406.486581 -103.089176 
L 408.521747 -99.786428 
L 410.597446 -96.483681 
L 412.670673 -93.180933 
L 414.693807 -89.878185 
L 416.616306 -86.575438 
L 418.386725 -83.27269 
L 419.954962 -79.969942 
L 421.27459 -76.667195 
L 422.305136 -73.364447 
L 423.014134 -70.061699 
L 423.378827 -66.758952 
L 423.387376 -63.456204 
z
" style="stroke: #000000; stroke-opacity: 0.9"/>
    </defs>
    <g clip-path="url(#p2643796128)">
     <use xlink:href="#m8d4107b11e" x="0" y="504" style="fill: #a6cee3; fill-opacity: 0.9; stroke: #000000; stroke-opacity: 0.9"/>
    </g>
   </g>
   <g id="PolyCollection_4">
    <defs>
     <path id="m9ec931adf3" d="M 554.627872 -63.466554 
L 489.007624 -63.466554 
L 489.088352 -67.216002 
L 490.062757 -70.965451 
L 491.851659 -74.714899 
L 494.313967 -78.464347 
L 497.265052 -82.213796 
L 500.499545 -85.963244 
L 503.814667 -89.712693 
L 507.030476 -93.462141 
L 510.00436 -97.211589 
L 512.638519 -100.961038 
L 514.88056 -104.710486 
L 516.718496 -108.459934 
L 518.172095 -112.209383 
L 519.282677 -115.958831 
L 520.103194 -119.708279 
L 520.689879 -123.457728 
L 521.096121 -127.207176 
L 521.368679 -130.956625 
L 521.545941 -134.706073 
L 521.657735 -138.455521 
L 521.726127 -142.20497 
L 521.766723 -145.954418 
L 521.790109 -149.703866 
L 521.803186 -153.453315 
L 521.810286 -157.202763 
L 521.814028 -160.952211 
L 521.815943 -164.70166 
L 521.816892 -168.451108 
L 521.817346 -172.200557 
L 521.817548 -175.950005 
L 521.817618 -179.699453 
L 521.817604 -183.448902 
L 521.817513 -187.19835 
L 521.817315 -190.947798 
L 521.816942 -194.697247 
L 521.816274 -198.446695 
L 521.815122 -202.196143 
L 521.813189 -205.945592 
L 521.810037 -209.69504 
L 521.805042 -213.444489 
L 521.797349 -217.193937 
L 521.785833 -220.943385 
L 521.769078 -224.692834 
L 521.74539 -228.442282 
L 521.71285 -232.19173 
L 521.669425 -235.941179 
L 521.613146 -239.690627 
L 521.542332 -243.440075 
L 521.455869 -247.189524 
L 521.353497 -250.938972 
L 521.236072 -254.688421 
L 521.105759 -258.437869 
L 520.966122 -262.187317 
L 520.822053 -265.936766 
L 520.679558 -269.686214 
L 520.545375 -273.435662 
L 520.426472 -277.185111 
L 520.329465 -280.934559 
L 520.260023 -284.684007 
L 520.222333 -288.433456 
L 520.218671 -292.182904 
L 520.249166 -295.932353 
L 520.311752 -299.681801 
L 520.40234 -303.431249 
L 520.515183 -307.180698 
L 520.643395 -310.930146 
L 520.77956 -314.679594 
L 520.916366 -318.429043 
L 521.047192 -322.178491 
L 521.166594 -325.927939 
L 521.270635 -329.677388 
L 521.357049 -333.426836 
L 521.42523 -337.176285 
L 521.476071 -340.925733 
L 521.511672 -344.675181 
L 521.534977 -348.42463 
L 521.549367 -352.174078 
L 521.55826 -355.923526 
L 521.564755 -359.672975 
L 521.571356 -363.422423 
L 521.579787 -367.171871 
L 521.590917 -370.92132 
L 521.604789 -374.670768 
L 521.620737 -378.420217 
L 521.637575 -382.169665 
L 521.653818 -385.919113 
L 521.667916 -389.668562 
L 521.678474 -393.41801 
L 521.684431 -397.167458 
L 521.685193 -400.916907 
L 521.68071 -404.666355 
L 521.671487 -408.415803 
L 521.658546 -412.165252 
L 521.643323 -415.9147 
L 521.627525 -419.664149 
L 521.612953 -423.413597 
L 521.601309 -427.163045 
L 521.594008 -430.912494 
L 521.592033 -434.661942 
L 522.043463 -434.661942 
L 522.043463 -434.661942 
L 522.041488 -430.912494 
L 522.034187 -427.163045 
L 522.022543 -423.413597 
L 522.007971 -419.664149 
L 521.992173 -415.9147 
L 521.97695 -412.165252 
L 521.964009 -408.415803 
L 521.954786 -404.666355 
L 521.950303 -400.916907 
L 521.951065 -397.167458 
L 521.957022 -393.41801 
L 521.96758 -389.668562 
L 521.981678 -385.919113 
L 521.997921 -382.169665 
L 522.014759 -378.420217 
L 522.030707 -374.670768 
L 522.044579 -370.92132 
L 522.055708 -367.171871 
L 522.064139 -363.422423 
L 522.070741 -359.672975 
L 522.077236 -355.923526 
L 522.086129 -352.174078 
L 522.100519 -348.42463 
L 522.123824 -344.675181 
L 522.159425 -340.925733 
L 522.210265 -337.176285 
L 522.278447 -333.426836 
L 522.36486 -329.677388 
L 522.468901 -325.927939 
L 522.588304 -322.178491 
L 522.71913 -318.429043 
L 522.855936 -314.679594 
L 522.992101 -310.930146 
L 523.120313 -307.180698 
L 523.233156 -303.431249 
L 523.323744 -299.681801 
L 523.386329 -295.932353 
L 523.416825 -292.182904 
L 523.413163 -288.433456 
L 523.375472 -284.684007 
L 523.306031 -280.934559 
L 523.209024 -277.185111 
L 523.090121 -273.435662 
L 522.955938 -269.686214 
L 522.813443 -265.936766 
L 522.669374 -262.187317 
L 522.529736 -258.437869 
L 522.399424 -254.688421 
L 522.281999 -250.938972 
L 522.179626 -247.189524 
L 522.093164 -243.440075 
L 522.02235 -239.690627 
L 521.966071 -235.941179 
L 521.922646 -232.19173 
L 521.890106 -228.442282 
L 521.866418 -224.692834 
L 521.849663 -220.943385 
L 521.838147 -217.193937 
L 521.830454 -213.444489 
L 521.825459 -209.69504 
L 521.822307 -205.945592 
L 521.820374 -202.196143 
L 521.819221 -198.446695 
L 521.818554 -194.697247 
L 521.818181 -190.947798 
L 521.817983 -187.19835 
L 521.817891 -183.448902 
L 521.817878 -179.699453 
L 521.817948 -175.950005 
L 521.81815 -172.200557 
L 521.818603 -168.451108 
L 521.819553 -164.70166 
L 521.821468 -160.952211 
L 521.82521 -157.202763 
L 521.83231 -153.453315 
L 521.845387 -149.703866 
L 521.868773 -145.954418 
L 521.909369 -142.20497 
L 521.977761 -138.455521 
L 522.089555 -134.706073 
L 522.266817 -130.956625 
L 522.539375 -127.207176 
L 522.945617 -123.457728 
L 523.532302 -119.708279 
L 524.352819 -115.958831 
L 525.4634 -112.209383 
L 526.917 -108.459934 
L 528.754936 -104.710486 
L 530.996977 -100.961038 
L 533.631135 -97.211589 
L 536.60502 -93.462141 
L 539.820829 -89.712693 
L 543.135951 -85.963244 
L 546.370444 -82.213796 
L 549.321529 -78.464347 
L 551.783837 -74.714899 
L 553.572739 -70.965451 
L 554.547144 -67.216002 
L 554.627872 -63.466554 
z
" style="stroke: #000000; stroke-opacity: 0.9"/>
    </defs>
    <g clip-path="url(#p2643796128)">
     <use xlink:href="#m9ec931adf3" x="0" y="504" style="fill: #a6cee3; fill-opacity: 0.9; stroke: #000000; stroke-opacity: 0.9"/>
    </g>
   </g>
   <g id="PolyCollection_5">
    <defs>
     <path id="med5f0994ba" d="M 685.736321 -63.447744 
L 620.380166 -63.447744 
L 620.24812 -66.074444 
L 620.824926 -68.701144 
L 622.073495 -71.327844 
L 623.915072 -73.954544 
L 626.237453 -76.581245 
L 628.906287 -79.207945 
L 631.777879 -81.834645 
L 634.7118 -84.461345 
L 637.581814 -87.088046 
L 640.283982 -89.714746 
L 642.741396 -92.341446 
L 644.905489 -94.968146 
L 646.754363 -97.594846 
L 648.288909 -100.221547 
L 649.5276 -102.848247 
L 650.500858 -105.474947 
L 651.245715 -108.101647 
L 651.801288 -110.728347 
L 652.205338 -113.355048 
L 652.491967 -115.981748 
L 652.690367 -118.608448 
L 652.824402 -121.235148 
L 652.912802 -123.861849 
L 652.969732 -126.488549 
L 653.005538 -129.115249 
L 653.027535 -131.741949 
L 653.040737 -134.368649 
L 653.048478 -136.99535 
L 653.052913 -139.62205 
L 653.055397 -142.24875 
L 653.056756 -144.87545 
L 653.057483 -147.50215 
L 653.057863 -150.128851 
L 653.058058 -152.755551 
L 653.058155 -155.382251 
L 653.058202 -158.008951 
L 653.058225 -160.635651 
L 653.058235 -163.262352 
L 653.05824 -165.889052 
L 653.058242 -168.515752 
L 653.058243 -171.142452 
L 653.058243 -173.769153 
L 653.058244 -176.395853 
L 653.058243 -179.022553 
L 653.058243 -181.649253 
L 653.058242 -184.275953 
L 653.058241 -186.902654 
L 653.058238 -189.529354 
L 653.058232 -192.156054 
L 653.058221 -194.782754 
L 653.0582 -197.409454 
L 653.058161 -200.036155 
L 653.058091 -202.662855 
L 653.057969 -205.289555 
L 653.05776 -207.916255 
L 653.05741 -210.542956 
L 653.056837 -213.169656 
L 653.055919 -215.796356 
L 653.054482 -218.423056 
L 653.052282 -221.049756 
L 653.04899 -223.676457 
L 653.044175 -226.303157 
L 653.037291 -228.929857 
L 653.027671 -231.556557 
L 653.01453 -234.183257 
L 652.996985 -236.809958 
L 652.974092 -239.436658 
L 652.944898 -242.063358 
L 652.908514 -244.690058 
L 652.864202 -247.316759 
L 652.811464 -249.943459 
L 652.750134 -252.570159 
L 652.68045 -255.196859 
L 652.603097 -257.823559 
L 652.519226 -260.45026 
L 652.430418 -263.07696 
L 652.338622 -265.70366 
L 652.246048 -268.33036 
L 652.155046 -270.95706 
L 652.067968 -273.583761 
L 651.987044 -276.210461 
L 651.914273 -278.837161 
L 651.851344 -281.463861 
L 651.799588 -284.090562 
L 651.759966 -286.717262 
L 651.733077 -289.343962 
L 651.71919 -291.970662 
L 651.718279 -294.597362 
L 651.730061 -297.224063 
L 651.754033 -299.850763 
L 651.789492 -302.477463 
L 651.835554 -305.104163 
L 651.891171 -307.730863 
L 651.955135 -310.357564 
L 652.026099 -312.984264 
L 652.102589 -315.610964 
L 652.183033 -318.237664 
L 652.2658 -320.864364 
L 652.349243 -323.491065 
L 653.767245 -323.491065 
L 653.767245 -323.491065 
L 653.850688 -320.864364 
L 653.933455 -318.237664 
L 654.013899 -315.610964 
L 654.090388 -312.984264 
L 654.161352 -310.357564 
L 654.225317 -307.730863 
L 654.280934 -305.104163 
L 654.326996 -302.477463 
L 654.362454 -299.850763 
L 654.386426 -297.224063 
L 654.398209 -294.597362 
L 654.397298 -291.970662 
L 654.383411 -289.343962 
L 654.356522 -286.717262 
L 654.3169 -284.090562 
L 654.265144 -281.463861 
L 654.202215 -278.837161 
L 654.129444 -276.210461 
L 654.04852 -273.583761 
L 653.961442 -270.95706 
L 653.870439 -268.33036 
L 653.777866 -265.70366 
L 653.68607 -263.07696 
L 653.597262 -260.45026 
L 653.51339 -257.823559 
L 653.436038 -255.196859 
L 653.366353 -252.570159 
L 653.305024 -249.943459 
L 653.252286 -247.316759 
L 653.207973 -244.690058 
L 653.171589 -242.063358 
L 653.142395 -239.436658 
L 653.119502 -236.809958 
L 653.101958 -234.183257 
L 653.088817 -231.556557 
L 653.079197 -228.929857 
L 653.072313 -226.303157 
L 653.067498 -223.676457 
L 653.064206 -221.049756 
L 653.062006 -218.423056 
L 653.060568 -215.796356 
L 653.05965 -213.169656 
L 653.059077 -210.542956 
L 653.058727 -207.916255 
L 653.058518 -205.289555 
L 653.058396 -202.662855 
L 653.058327 -200.036155 
L 653.058288 -197.409454 
L 653.058267 -194.782754 
L 653.058256 -192.156054 
L 653.05825 -189.529354 
L 653.058247 -186.902654 
L 653.058245 -184.275953 
L 653.058244 -181.649253 
L 653.058244 -179.022553 
L 653.058244 -176.395853 
L 653.058244 -173.769153 
L 653.058245 -171.142452 
L 653.058245 -168.515752 
L 653.058248 -165.889052 
L 653.058252 -163.262352 
L 653.058263 -160.635651 
L 653.058286 -158.008951 
L 653.058333 -155.382251 
L 653.05843 -152.755551 
L 653.058624 -150.128851 
L 653.059004 -147.50215 
L 653.059731 -144.87545 
L 653.061091 -142.24875 
L 653.063574 -139.62205 
L 653.06801 -136.99535 
L 653.075751 -134.368649 
L 653.088953 -131.741949 
L 653.11095 -129.115249 
L 653.146756 -126.488549 
L 653.203685 -123.861849 
L 653.292086 -121.235148 
L 653.426121 -118.608448 
L 653.62452 -115.981748 
L 653.91115 -113.355048 
L 654.315199 -110.728347 
L 654.870773 -108.101647 
L 655.61563 -105.474947 
L 656.588888 -102.848247 
L 657.827579 -100.221547 
L 659.362125 -97.594846 
L 661.210999 -94.968146 
L 663.375092 -92.341446 
L 665.832506 -89.714746 
L 668.534674 -87.088046 
L 671.404687 -84.461345 
L 674.338609 -81.834645 
L 677.210201 -79.207945 
L 679.879035 -76.581245 
L 682.201416 -73.954544 
L 684.042992 -71.327844 
L 685.291562 -68.701144 
L 685.868368 -66.074444 
L 685.736321 -63.447744 
z
" style="stroke: #000000; stroke-opacity: 0.9"/>
    </defs>
    <g clip-path="url(#p2643796128)">
     <use xlink:href="#med5f0994ba" x="0" y="504" style="fill: #a6cee3; fill-opacity: 0.9; stroke: #000000; stroke-opacity: 0.9"/>
    </g>
   </g>
   <g id="PolyCollection_6">
    <defs>
     <path id="m5f00032ed1" d="M 815.783735 -64.741539 
L 752.813745 -64.741539 
L 752.634018 -64.753548 
L 752.468283 -64.765556 
L 752.316426 -64.777565 
L 752.178295 -64.789573 
L 752.053704 -64.801582 
L 751.94243 -64.81359 
L 751.844221 -64.825598 
L 751.75879 -64.837607 
L 751.685822 -64.849615 
L 751.624971 -64.861624 
L 751.575866 -64.873632 
L 751.538109 -64.885641 
L 751.511279 -64.897649 
L 751.494935 -64.909657 
L 751.488616 -64.921666 
L 751.491842 -64.933674 
L 751.504121 -64.945683 
L 751.524946 -64.957691 
L 751.553803 -64.9697 
L 751.590165 -64.981708 
L 751.633506 -64.993717 
L 751.683291 -65.005725 
L 751.738988 -65.017733 
L 751.800066 -65.029742 
L 751.865996 -65.04175 
L 751.936258 -65.053759 
L 752.01034 -65.065767 
L 752.08774 -65.077776 
L 752.167969 -65.089784 
L 752.250553 -65.101792 
L 752.335037 -65.113801 
L 752.420981 -65.125809 
L 752.507968 -65.137818 
L 752.595603 -65.149826 
L 752.683514 -65.161835 
L 752.771354 -65.173843 
L 752.858802 -65.185852 
L 752.945567 -65.19786 
L 753.031381 -65.209868 
L 753.11601 -65.221877 
L 753.199247 -65.233885 
L 753.280916 -65.245894 
L 753.360873 -65.257902 
L 753.439001 -65.269911 
L 753.515218 -65.281919 
L 753.589471 -65.293927 
L 753.661736 -65.305936 
L 753.732022 -65.317944 
L 753.800367 -65.329953 
L 753.866835 -65.341961 
L 753.931521 -65.35397 
L 753.994548 -65.365978 
L 754.056063 -65.377987 
L 754.116239 -65.389995 
L 754.175274 -65.402003 
L 754.233386 -65.414012 
L 754.290817 -65.42602 
L 754.347826 -65.438029 
L 754.404693 -65.450037 
L 754.461713 -65.462046 
L 754.519195 -65.474054 
L 754.577462 -65.486062 
L 754.636849 -65.498071 
L 754.697699 -65.510079 
L 754.760364 -65.522088 
L 754.825202 -65.534096 
L 754.892574 -65.546105 
L 754.962845 -65.558113 
L 755.036378 -65.570122 
L 755.113536 -65.58213 
L 755.194681 -65.594138 
L 755.280168 -65.606147 
L 755.370345 -65.618155 
L 755.465554 -65.630164 
L 755.566126 -65.642172 
L 755.672382 -65.654181 
L 755.784631 -65.666189 
L 755.903166 -65.678197 
L 756.028267 -65.690206 
L 756.160196 -65.702214 
L 756.299199 -65.714223 
L 756.445504 -65.726231 
L 756.599318 -65.73824 
L 756.760829 -65.750248 
L 756.930203 -65.762257 
L 757.107585 -65.774265 
L 757.293099 -65.786273 
L 757.486845 -65.798282 
L 757.688899 -65.81029 
L 757.899317 -65.822299 
L 758.118129 -65.834307 
L 758.345341 -65.846316 
L 758.580938 -65.858324 
L 758.82488 -65.870332 
L 759.077104 -65.882341 
L 759.337524 -65.894349 
L 759.606033 -65.906358 
L 759.882498 -65.918366 
L 760.16677 -65.930375 
L 808.43071 -65.930375 
L 808.43071 -65.930375 
L 808.714981 -65.918366 
L 808.991447 -65.906358 
L 809.259955 -65.894349 
L 809.520375 -65.882341 
L 809.772599 -65.870332 
L 810.016541 -65.858324 
L 810.252138 -65.846316 
L 810.479351 -65.834307 
L 810.698162 -65.822299 
L 810.90858 -65.81029 
L 811.110635 -65.798282 
L 811.30438 -65.786273 
L 811.489894 -65.774265 
L 811.667277 -65.762257 
L 811.836651 -65.750248 
L 811.998161 -65.73824 
L 812.151975 -65.726231 
L 812.29828 -65.714223 
L 812.437283 -65.702214 
L 812.569213 -65.690206 
L 812.694313 -65.678197 
L 812.812848 -65.666189 
L 812.925097 -65.654181 
L 813.031353 -65.642172 
L 813.131926 -65.630164 
L 813.227135 -65.618155 
L 813.317312 -65.606147 
L 813.402798 -65.594138 
L 813.483943 -65.58213 
L 813.561102 -65.570122 
L 813.634635 -65.558113 
L 813.704905 -65.546105 
L 813.772277 -65.534096 
L 813.837115 -65.522088 
L 813.899781 -65.510079 
L 813.960631 -65.498071 
L 814.020018 -65.486062 
L 814.078285 -65.474054 
L 814.135767 -65.462046 
L 814.192786 -65.450037 
L 814.249653 -65.438029 
L 814.306663 -65.42602 
L 814.364093 -65.414012 
L 814.422206 -65.402003 
L 814.48124 -65.389995 
L 814.541416 -65.377987 
L 814.602931 -65.365978 
L 814.665958 -65.35397 
L 814.730645 -65.341961 
L 814.797113 -65.329953 
L 814.865457 -65.317944 
L 814.935743 -65.305936 
L 815.008009 -65.293927 
L 815.082261 -65.281919 
L 815.158478 -65.269911 
L 815.236607 -65.257902 
L 815.316563 -65.245894 
L 815.398232 -65.233885 
L 815.48147 -65.221877 
L 815.566098 -65.209868 
L 815.651913 -65.19786 
L 815.738677 -65.185852 
L 815.826126 -65.173843 
L 815.913966 -65.161835 
L 816.001877 -65.149826 
L 816.089512 -65.137818 
L 816.176499 -65.125809 
L 816.262443 -65.113801 
L 816.346926 -65.101792 
L 816.42951 -65.089784 
L 816.50974 -65.077776 
L 816.587139 -65.065767 
L 816.661221 -65.053759 
L 816.731483 -65.04175 
L 816.797414 -65.029742 
L 816.858491 -65.017733 
L 816.914188 -65.005725 
L 816.963974 -64.993717 
L 817.007314 -64.981708 
L 817.043677 -64.9697 
L 817.072533 -64.957691 
L 817.093359 -64.945683 
L 817.105637 -64.933674 
L 817.108864 -64.921666 
L 817.102544 -64.909657 
L 817.0862 -64.897649 
L 817.059371 -64.885641 
L 817.021614 -64.873632 
L 816.972508 -64.861624 
L 816.911658 -64.849615 
L 816.838689 -64.837607 
L 816.753259 -64.825598 
L 816.655049 -64.81359 
L 816.543776 -64.801582 
L 816.419184 -64.789573 
L 816.281053 -64.777565 
L 816.129196 -64.765556 
L 815.963462 -64.753548 
L 815.783735 -64.741539 
z
" style="stroke: #000000; stroke-opacity: 0.9"/>
    </defs>
    <g clip-path="url(#p2643796128)">
     <use xlink:href="#m5f00032ed1" x="0" y="504" style="fill: #a6cee3; fill-opacity: 0.9; stroke: #000000; stroke-opacity: 0.9"/>
    </g>
   </g>
   <g id="matplotlib.axis_1">
    <g id="xtick_1">
     <g id="line2d_1">
      <defs>
       <path id="ma4fa10573e" d="M 0 0 
L 0 3.5 
" style="stroke: #000000; stroke-width: 0.8"/>
      </defs>
      <g>
       <use xlink:href="#ma4fa10573e" x="128.09626" y="460.24" style="stroke: #000000; stroke-width: 0.8"/>
      </g>
     </g>
     <g id="text_1">
      <!-- 0 -->
      <g transform="translate(124.91501 474.838437) scale(0.1 -0.1)">
       <defs>
        <path id="DejaVuSans-30" d="M 2034 4250 
Q 1547 4250 1301 3770 
Q 1056 3291 1056 2328 
Q 1056 1369 1301 889 
Q 1547 409 2034 409 
Q 2525 409 2770 889 
Q 3016 1369 3016 2328 
Q 3016 3291 2770 3770 
Q 2525 4250 2034 4250 
z
M 2034 4750 
Q 2819 4750 3233 4129 
Q 3647 3509 3647 2328 
Q 3647 1150 3233 529 
Q 2819 -91 2034 -91 
Q 1250 -91 836 529 
Q 422 1150 422 2328 
Q 422 3509 836 4129 
Q 1250 4750 2034 4750 
z
" transform="scale(0.015625)"/>
       </defs>
       <use xlink:href="#DejaVuSans-30"/>
      </g>
     </g>
    </g>
    <g id="xtick_2">
     <g id="line2d_2">
      <g>
       <use xlink:href="#ma4fa10573e" x="259.336756" y="460.24" style="stroke: #000000; stroke-width: 0.8"/>
      </g>
     </g>
     <g id="text_2">
      <!-- 1 -->
      <g transform="translate(256.155506 474.838437) scale(0.1 -0.1)">
       <defs>
        <path id="DejaVuSans-31" d="M 794 531 
L 1825 531 
L 1825 4091 
L 703 3866 
L 703 4441 
L 1819 4666 
L 2450 4666 
L 2450 531 
L 3481 531 
L 3481 0 
L 794 0 
L 794 531 
z
" transform="scale(0.015625)"/>
       </defs>
       <use xlink:href="#DejaVuSans-31"/>
      </g>
     </g>
    </g>
    <g id="xtick_3">
     <g id="line2d_3">
      <g>
       <use xlink:href="#ma4fa10573e" x="390.577252" y="460.24" style="stroke: #000000; stroke-width: 0.8"/>
      </g>
     </g>
     <g id="text_3">
      <!-- 2 -->
      <g transform="translate(387.396002 474.838437) scale(0.1 -0.1)">
       <defs>
        <path id="DejaVuSans-32" d="M 1228 531 
L 3431 531 
L 3431 0 
L 469 0 
L 469 531 
Q 828 903 1448 1529 
Q 2069 2156 2228 2338 
Q 2531 2678 2651 2914 
Q 2772 3150 2772 3378 
Q 2772 3750 2511 3984 
Q 2250 4219 1831 4219 
Q 1534 4219 1204 4116 
Q 875 4013 500 3803 
L 500 4441 
Q 881 4594 1212 4672 
Q 1544 4750 1819 4750 
Q 2544 4750 2975 4387 
Q 3406 4025 3406 3419 
Q 3406 3131 3298 2873 
Q 3191 2616 2906 2266 
Q 2828 2175 2409 1742 
Q 1991 1309 1228 531 
z
" transform="scale(0.015625)"/>
       </defs>
       <use xlink:href="#DejaVuSans-32"/>
      </g>
     </g>
    </g>
    <g id="xtick_4">
     <g id="line2d_4">
      <g>
       <use xlink:href="#ma4fa10573e" x="521.817748" y="460.24" style="stroke: #000000; stroke-width: 0.8"/>
      </g>
     </g>
     <g id="text_4">
      <!-- 3 -->
      <g transform="translate(518.636498 474.838437) scale(0.1 -0.1)">
       <defs>
        <path id="DejaVuSans-33" d="M 2597 2516 
Q 3050 2419 3304 2112 
Q 3559 1806 3559 1356 
Q 3559 666 3084 287 
Q 2609 -91 1734 -91 
Q 1441 -91 1130 -33 
Q 819 25 488 141 
L 488 750 
Q 750 597 1062 519 
Q 1375 441 1716 441 
Q 2309 441 2620 675 
Q 2931 909 2931 1356 
Q 2931 1769 2642 2001 
Q 2353 2234 1838 2234 
L 1294 2234 
L 1294 2753 
L 1863 2753 
Q 2328 2753 2575 2939 
Q 2822 3125 2822 3475 
Q 2822 3834 2567 4026 
Q 2313 4219 1838 4219 
Q 1578 4219 1281 4162 
Q 984 4106 628 3988 
L 628 4550 
Q 988 4650 1302 4700 
Q 1616 4750 1894 4750 
Q 2613 4750 3031 4423 
Q 3450 4097 3450 3541 
Q 3450 3153 3228 2886 
Q 3006 2619 2597 2516 
z
" transform="scale(0.015625)"/>
       </defs>
       <use xlink:href="#DejaVuSans-33"/>
      </g>
     </g>
    </g>
    <g id="xtick_5">
     <g id="line2d_5">
      <g>
       <use xlink:href="#ma4fa10573e" x="653.058244" y="460.24" style="stroke: #000000; stroke-width: 0.8"/>
      </g>
     </g>
     <g id="text_5">
      <!-- 4 -->
      <g transform="translate(649.876994 474.838437) scale(0.1 -0.1)">
       <defs>
        <path id="DejaVuSans-34" d="M 2419 4116 
L 825 1625 
L 2419 1625 
L 2419 4116 
z
M 2253 4666 
L 3047 4666 
L 3047 1625 
L 3713 1625 
L 3713 1100 
L 3047 1100 
L 3047 0 
L 2419 0 
L 2419 1100 
L 313 1100 
L 313 1709 
L 2253 4666 
z
" transform="scale(0.015625)"/>
       </defs>
       <use xlink:href="#DejaVuSans-34"/>
      </g>
     </g>
    </g>
    <g id="xtick_6">
     <g id="line2d_6">
      <g>
       <use xlink:href="#ma4fa10573e" x="784.29874" y="460.24" style="stroke: #000000; stroke-width: 0.8"/>
      </g>
     </g>
     <g id="text_6">
      <!-- 5 -->
      <g transform="translate(781.11749 474.838437) scale(0.1 -0.1)">
       <defs>
        <path id="DejaVuSans-35" d="M 691 4666 
L 3169 4666 
L 3169 4134 
L 1269 4134 
L 1269 2991 
Q 1406 3038 1543 3061 
Q 1681 3084 1819 3084 
Q 2600 3084 3056 2656 
Q 3513 2228 3513 1497 
Q 3513 744 3044 326 
Q 2575 -91 1722 -91 
Q 1428 -91 1123 -41 
Q 819 9 494 109 
L 494 744 
Q 775 591 1075 516 
Q 1375 441 1709 441 
Q 2250 441 2565 725 
Q 2881 1009 2881 1497 
Q 2881 1984 2565 2268 
Q 2250 2553 1709 2553 
Q 1456 2553 1204 2497 
Q 953 2441 691 2322 
L 691 4666 
z
" transform="scale(0.015625)"/>
       </defs>
       <use xlink:href="#DejaVuSans-35"/>
      </g>
     </g>
    </g>
    <g id="text_7">
     <!-- Weather/Tire cluster -->
     <g transform="translate(395.435313 490.03625) scale(0.12 -0.12)">
      <defs>
       <path id="DejaVuSans-57" d="M 213 4666 
L 850 4666 
L 1831 722 
L 2809 4666 
L 3519 4666 
L 4500 722 
L 5478 4666 
L 6119 4666 
L 4947 0 
L 4153 0 
L 3169 4050 
L 2175 0 
L 1381 0 
L 213 4666 
z
" transform="scale(0.015625)"/>
       <path id="DejaVuSans-65" d="M 3597 1894 
L 3597 1613 
L 953 1613 
Q 991 1019 1311 708 
Q 1631 397 2203 397 
Q 2534 397 2845 478 
Q 3156 559 3463 722 
L 3463 178 
Q 3153 47 2828 -22 
Q 2503 -91 2169 -91 
Q 1331 -91 842 396 
Q 353 884 353 1716 
Q 353 2575 817 3079 
Q 1281 3584 2069 3584 
Q 2775 3584 3186 3129 
Q 3597 2675 3597 1894 
z
M 3022 2063 
Q 3016 2534 2758 2815 
Q 2500 3097 2075 3097 
Q 1594 3097 1305 2825 
Q 1016 2553 972 2059 
L 3022 2063 
z
" transform="scale(0.015625)"/>
       <path id="DejaVuSans-61" d="M 2194 1759 
Q 1497 1759 1228 1600 
Q 959 1441 959 1056 
Q 959 750 1161 570 
Q 1363 391 1709 391 
Q 2188 391 2477 730 
Q 2766 1069 2766 1631 
L 2766 1759 
L 2194 1759 
z
M 3341 1997 
L 3341 0 
L 2766 0 
L 2766 531 
Q 2569 213 2275 61 
Q 1981 -91 1556 -91 
Q 1019 -91 701 211 
Q 384 513 384 1019 
Q 384 1609 779 1909 
Q 1175 2209 1959 2209 
L 2766 2209 
L 2766 2266 
Q 2766 2663 2505 2880 
Q 2244 3097 1772 3097 
Q 1472 3097 1187 3025 
Q 903 2953 641 2809 
L 641 3341 
Q 956 3463 1253 3523 
Q 1550 3584 1831 3584 
Q 2591 3584 2966 3190 
Q 3341 2797 3341 1997 
z
" transform="scale(0.015625)"/>
       <path id="DejaVuSans-74" d="M 1172 4494 
L 1172 3500 
L 2356 3500 
L 2356 3053 
L 1172 3053 
L 1172 1153 
Q 1172 725 1289 603 
Q 1406 481 1766 481 
L 2356 481 
L 2356 0 
L 1766 0 
Q 1100 0 847 248 
Q 594 497 594 1153 
L 594 3053 
L 172 3053 
L 172 3500 
L 594 3500 
L 594 4494 
L 1172 4494 
z
" transform="scale(0.015625)"/>
       <path id="DejaVuSans-68" d="M 3513 2113 
L 3513 0 
L 2938 0 
L 2938 2094 
Q 2938 2591 2744 2837 
Q 2550 3084 2163 3084 
Q 1697 3084 1428 2787 
Q 1159 2491 1159 1978 
L 1159 0 
L 581 0 
L 581 4863 
L 1159 4863 
L 1159 2956 
Q 1366 3272 1645 3428 
Q 1925 3584 2291 3584 
Q 2894 3584 3203 3211 
Q 3513 2838 3513 2113 
z
" transform="scale(0.015625)"/>
       <path id="DejaVuSans-72" d="M 2631 2963 
Q 2534 3019 2420 3045 
Q 2306 3072 2169 3072 
Q 1681 3072 1420 2755 
Q 1159 2438 1159 1844 
L 1159 0 
L 581 0 
L 581 3500 
L 1159 3500 
L 1159 2956 
Q 1341 3275 1631 3429 
Q 1922 3584 2338 3584 
Q 2397 3584 2469 3576 
Q 2541 3569 2628 3553 
L 2631 2963 
z
" transform="scale(0.015625)"/>
       <path id="DejaVuSans-2f" d="M 1625 4666 
L 2156 4666 
L 531 -594 
L 0 -594 
L 1625 4666 
z
" transform="scale(0.015625)"/>
       <path id="DejaVuSans-54" d="M -19 4666 
L 3928 4666 
L 3928 4134 
L 2272 4134 
L 2272 0 
L 1638 0 
L 1638 4134 
L -19 4134 
L -19 4666 
z
" transform="scale(0.015625)"/>
       <path id="DejaVuSans-69" d="M 603 3500 
L 1178 3500 
L 1178 0 
L 603 0 
L 603 3500 
z
M 603 4863 
L 1178 4863 
L 1178 4134 
L 603 4134 
L 603 4863 
z
" transform="scale(0.015625)"/>
       <path id="DejaVuSans-20" transform="scale(0.015625)"/>
       <path id="DejaVuSans-63" d="M 3122 3366 
L 3122 2828 
Q 2878 2963 2633 3030 
Q 2388 3097 2138 3097 
Q 1578 3097 1268 2742 
Q 959 2388 959 1747 
Q 959 1106 1268 751 
Q 1578 397 2138 397 
Q 2388 397 2633 464 
Q 2878 531 3122 666 
L 3122 134 
Q 2881 22 2623 -34 
Q 2366 -91 2075 -91 
Q 1284 -91 818 406 
Q 353 903 353 1747 
Q 353 2603 823 3093 
Q 1294 3584 2113 3584 
Q 2378 3584 2631 3529 
Q 2884 3475 3122 3366 
z
" transform="scale(0.015625)"/>
       <path id="DejaVuSans-6c" d="M 603 4863 
L 1178 4863 
L 1178 0 
L 603 0 
L 603 4863 
z
" transform="scale(0.015625)"/>
       <path id="DejaVuSans-75" d="M 544 1381 
L 544 3500 
L 1119 3500 
L 1119 1403 
Q 1119 906 1312 657 
Q 1506 409 1894 409 
Q 2359 409 2629 706 
Q 2900 1003 2900 1516 
L 2900 3500 
L 3475 3500 
L 3475 0 
L 2900 0 
L 2900 538 
Q 2691 219 2414 64 
Q 2138 -91 1772 -91 
Q 1169 -91 856 284 
Q 544 659 544 1381 
z
M 1991 3584 
L 1991 3584 
z
" transform="scale(0.015625)"/>
       <path id="DejaVuSans-73" d="M 2834 3397 
L 2834 2853 
Q 2591 2978 2328 3040 
Q 2066 3103 1784 3103 
Q 1356 3103 1142 2972 
Q 928 2841 928 2578 
Q 928 2378 1081 2264 
Q 1234 2150 1697 2047 
L 1894 2003 
Q 2506 1872 2764 1633 
Q 3022 1394 3022 966 
Q 3022 478 2636 193 
Q 2250 -91 1575 -91 
Q 1294 -91 989 -36 
Q 684 19 347 128 
L 347 722 
Q 666 556 975 473 
Q 1284 391 1588 391 
Q 1994 391 2212 530 
Q 2431 669 2431 922 
Q 2431 1156 2273 1281 
Q 2116 1406 1581 1522 
L 1381 1569 
Q 847 1681 609 1914 
Q 372 2147 372 2553 
Q 372 3047 722 3315 
Q 1072 3584 1716 3584 
Q 2034 3584 2315 3537 
Q 2597 3491 2834 3397 
z
" transform="scale(0.015625)"/>
      </defs>
      <use xlink:href="#DejaVuSans-57"/>
      <use xlink:href="#DejaVuSans-65" x="93.001953"/>
      <use xlink:href="#DejaVuSans-61" x="154.525391"/>
      <use xlink:href="#DejaVuSans-74" x="215.804688"/>
      <use xlink:href="#DejaVuSans-68" x="255.013672"/>
      <use xlink:href="#DejaVuSans-65" x="318.392578"/>
      <use xlink:href="#DejaVuSans-72" x="379.916016"/>
      <use xlink:href="#DejaVuSans-2f" x="421.029297"/>
      <use xlink:href="#DejaVuSans-54" x="454.720703"/>
      <use xlink:href="#DejaVuSans-69" x="512.679688"/>
      <use xlink:href="#DejaVuSans-72" x="540.462891"/>
      <use xlink:href="#DejaVuSans-65" x="579.326172"/>
      <use xlink:href="#DejaVuSans-20" x="640.849609"/>
      <use xlink:href="#DejaVuSans-63" x="672.636719"/>
      <use xlink:href="#DejaVuSans-6c" x="727.617188"/>
      <use xlink:href="#DejaVuSans-75" x="755.400391"/>
      <use xlink:href="#DejaVuSans-73" x="818.779297"/>
      <use xlink:href="#DejaVuSans-74" x="870.878906"/>
      <use xlink:href="#DejaVuSans-65" x="910.087891"/>
      <use xlink:href="#DejaVuSans-72" x="971.611328"/>
     </g>
    </g>
   </g>
   <g id="matplotlib.axis_2">
    <g id="ytick_1">
     <g id="line2d_7">
      <path d="M 59.195 440.582233 
L 853.2 440.582233 
" clip-path="url(#p2643796128)" style="fill: none; stroke: #b0b0b0; stroke-opacity: 0.3; stroke-width: 0.8; stroke-linecap: square"/>
     </g>
     <g id="line2d_8">
      <defs>
       <path id="mf6c2580d29" d="M 0 0 
L -3.5 0 
" style="stroke: #000000; stroke-width: 0.8"/>
      </defs>
      <g>
       <use xlink:href="#mf6c2580d29" x="59.195" y="440.582233" style="stroke: #000000; stroke-width: 0.8"/>
      </g>
     </g>
     <g id="text_8">
      <!-- 0 -->
      <g transform="translate(45.8325 444.381452) scale(0.1 -0.1)">
       <use xlink:href="#DejaVuSans-30"/>
      </g>
     </g>
    </g>
    <g id="ytick_2">
     <g id="line2d_9">
      <path d="M 59.195 354.689932 
L 853.2 354.689932 
" clip-path="url(#p2643796128)" style="fill: none; stroke: #b0b0b0; stroke-opacity: 0.3; stroke-width: 0.8; stroke-linecap: square"/>
     </g>
     <g id="line2d_10">
      <g>
       <use xlink:href="#mf6c2580d29" x="59.195" y="354.689932" style="stroke: #000000; stroke-width: 0.8"/>
      </g>
     </g>
     <g id="text_9">
      <!-- 2000 -->
      <g transform="translate(26.745 358.489151) scale(0.1 -0.1)">
       <use xlink:href="#DejaVuSans-32"/>
       <use xlink:href="#DejaVuSans-30" x="63.623047"/>
       <use xlink:href="#DejaVuSans-30" x="127.246094"/>
       <use xlink:href="#DejaVuSans-30" x="190.869141"/>
      </g>
     </g>
    </g>
    <g id="ytick_3">
     <g id="line2d_11">
      <path d="M 59.195 268.797631 
L 853.2 268.797631 
" clip-path="url(#p2643796128)" style="fill: none; stroke: #b0b0b0; stroke-opacity: 0.3; stroke-width: 0.8; stroke-linecap: square"/>
     </g>
     <g id="line2d_12">
      <g>
       <use xlink:href="#mf6c2580d29" x="59.195" y="268.797631" style="stroke: #000000; stroke-width: 0.8"/>
      </g>
     </g>
     <g id="text_10">
      <!-- 4000 -->
      <g transform="translate(26.745 272.59685) scale(0.1 -0.1)">
       <use xlink:href="#DejaVuSans-34"/>
       <use xlink:href="#DejaVuSans-30" x="63.623047"/>
       <use xlink:href="#DejaVuSans-30" x="127.246094"/>
       <use xlink:href="#DejaVuSans-30" x="190.869141"/>
      </g>
     </g>
    </g>
    <g id="ytick_4">
     <g id="line2d_13">
      <path d="M 59.195 182.90533 
L 853.2 182.90533 
" clip-path="url(#p2643796128)" style="fill: none; stroke: #b0b0b0; stroke-opacity: 0.3; stroke-width: 0.8; stroke-linecap: square"/>
     </g>
     <g id="line2d_14">
      <g>
       <use xlink:href="#mf6c2580d29" x="59.195" y="182.90533" style="stroke: #000000; stroke-width: 0.8"/>
      </g>
     </g>
     <g id="text_11">
      <!-- 6000 -->
      <g transform="translate(26.745 186.704549) scale(0.1 -0.1)">
       <defs>
        <path id="DejaVuSans-36" d="M 2113 2584 
Q 1688 2584 1439 2293 
Q 1191 2003 1191 1497 
Q 1191 994 1439 701 
Q 1688 409 2113 409 
Q 2538 409 2786 701 
Q 3034 994 3034 1497 
Q 3034 2003 2786 2293 
Q 2538 2584 2113 2584 
z
M 3366 4563 
L 3366 3988 
Q 3128 4100 2886 4159 
Q 2644 4219 2406 4219 
Q 1781 4219 1451 3797 
Q 1122 3375 1075 2522 
Q 1259 2794 1537 2939 
Q 1816 3084 2150 3084 
Q 2853 3084 3261 2657 
Q 3669 2231 3669 1497 
Q 3669 778 3244 343 
Q 2819 -91 2113 -91 
Q 1303 -91 875 529 
Q 447 1150 447 2328 
Q 447 3434 972 4092 
Q 1497 4750 2381 4750 
Q 2619 4750 2861 4703 
Q 3103 4656 3366 4563 
z
" transform="scale(0.015625)"/>
       </defs>
       <use xlink:href="#DejaVuSans-36"/>
       <use xlink:href="#DejaVuSans-30" x="63.623047"/>
       <use xlink:href="#DejaVuSans-30" x="127.246094"/>
       <use xlink:href="#DejaVuSans-30" x="190.869141"/>
      </g>
     </g>
    </g>
    <g id="ytick_5">
     <g id="line2d_15">
      <path d="M 59.195 97.01303 
L 853.2 97.01303 
" clip-path="url(#p2643796128)" style="fill: none; stroke: #b0b0b0; stroke-opacity: 0.3; stroke-width: 0.8; stroke-linecap: square"/>
     </g>
     <g id="line2d_16">
      <g>
       <use xlink:href="#mf6c2580d29" x="59.195" y="97.01303" style="stroke: #000000; stroke-width: 0.8"/>
      </g>
     </g>
     <g id="text_12">
      <!-- 8000 -->
      <g transform="translate(26.745 100.812248) scale(0.1 -0.1)">
       <defs>
        <path id="DejaVuSans-38" d="M 2034 2216 
Q 1584 2216 1326 1975 
Q 1069 1734 1069 1313 
Q 1069 891 1326 650 
Q 1584 409 2034 409 
Q 2484 409 2743 651 
Q 3003 894 3003 1313 
Q 3003 1734 2745 1975 
Q 2488 2216 2034 2216 
z
M 1403 2484 
Q 997 2584 770 2862 
Q 544 3141 544 3541 
Q 544 4100 942 4425 
Q 1341 4750 2034 4750 
Q 2731 4750 3128 4425 
Q 3525 4100 3525 3541 
Q 3525 3141 3298 2862 
Q 3072 2584 2669 2484 
Q 3125 2378 3379 2068 
Q 3634 1759 3634 1313 
Q 3634 634 3220 271 
Q 2806 -91 2034 -91 
Q 1263 -91 848 271 
Q 434 634 434 1313 
Q 434 1759 690 2068 
Q 947 2378 1403 2484 
z
M 1172 3481 
Q 1172 3119 1398 2916 
Q 1625 2713 2034 2713 
Q 2441 2713 2670 2916 
Q 2900 3119 2900 3481 
Q 2900 3844 2670 4047 
Q 2441 4250 2034 4250 
Q 1625 4250 1398 4047 
Q 1172 3844 1172 3481 
z
" transform="scale(0.015625)"/>
       </defs>
       <use xlink:href="#DejaVuSans-38"/>
       <use xlink:href="#DejaVuSans-30" x="63.623047"/>
       <use xlink:href="#DejaVuSans-30" x="127.246094"/>
       <use xlink:href="#DejaVuSans-30" x="190.869141"/>
      </g>
     </g>
    </g>
    <g id="text_13">
     <!-- Race time (s) -->
     <g transform="translate(20.249375 283.798437) rotate(-90) scale(0.12 -0.12)">
      <defs>
       <path id="DejaVuSans-52" d="M 2841 2188 
Q 3044 2119 3236 1894 
Q 3428 1669 3622 1275 
L 4263 0 
L 3584 0 
L 2988 1197 
Q 2756 1666 2539 1819 
Q 2322 1972 1947 1972 
L 1259 1972 
L 1259 0 
L 628 0 
L 628 4666 
L 2053 4666 
Q 2853 4666 3247 4331 
Q 3641 3997 3641 3322 
Q 3641 2881 3436 2590 
Q 3231 2300 2841 2188 
z
M 1259 4147 
L 1259 2491 
L 2053 2491 
Q 2509 2491 2742 2702 
Q 2975 2913 2975 3322 
Q 2975 3731 2742 3939 
Q 2509 4147 2053 4147 
L 1259 4147 
z
" transform="scale(0.015625)"/>
       <path id="DejaVuSans-6d" d="M 3328 2828 
Q 3544 3216 3844 3400 
Q 4144 3584 4550 3584 
Q 5097 3584 5394 3201 
Q 5691 2819 5691 2113 
L 5691 0 
L 5113 0 
L 5113 2094 
Q 5113 2597 4934 2840 
Q 4756 3084 4391 3084 
Q 3944 3084 3684 2787 
Q 3425 2491 3425 1978 
L 3425 0 
L 2847 0 
L 2847 2094 
Q 2847 2600 2669 2842 
Q 2491 3084 2119 3084 
Q 1678 3084 1418 2786 
Q 1159 2488 1159 1978 
L 1159 0 
L 581 0 
L 581 3500 
L 1159 3500 
L 1159 2956 
Q 1356 3278 1631 3431 
Q 1906 3584 2284 3584 
Q 2666 3584 2933 3390 
Q 3200 3197 3328 2828 
z
" transform="scale(0.015625)"/>
       <path id="DejaVuSans-28" d="M 1984 4856 
Q 1566 4138 1362 3434 
Q 1159 2731 1159 2009 
Q 1159 1288 1364 580 
Q 1569 -128 1984 -844 
L 1484 -844 
Q 1016 -109 783 600 
Q 550 1309 550 2009 
Q 550 2706 781 3412 
Q 1013 4119 1484 4856 
L 1984 4856 
z
" transform="scale(0.015625)"/>
       <path id="DejaVuSans-29" d="M 513 4856 
L 1013 4856 
Q 1481 4119 1714 3412 
Q 1947 2706 1947 2009 
Q 1947 1309 1714 600 
Q 1481 -109 1013 -844 
L 513 -844 
Q 928 -128 1133 580 
Q 1338 1288 1338 2009 
Q 1338 2731 1133 3434 
Q 928 4138 513 4856 
z
" transform="scale(0.015625)"/>
      </defs>
      <use xlink:href="#DejaVuSans-52"/>
      <use xlink:href="#DejaVuSans-61" x="67.232422"/>
      <use xlink:href="#DejaVuSans-63" x="128.511719"/>
      <use xlink:href="#DejaVuSans-65" x="183.492188"/>
      <use xlink:href="#DejaVuSans-20" x="245.015625"/>
      <use xlink:href="#DejaVuSans-74" x="276.802734"/>
      <use xlink:href="#DejaVuSans-69" x="316.011719"/>
      <use xlink:href="#DejaVuSans-6d" x="343.794922"/>
      <use xlink:href="#DejaVuSans-65" x="441.207031"/>
      <use xlink:href="#DejaVuSans-20" x="502.730469"/>
      <use xlink:href="#DejaVuSans-28" x="534.517578"/>
      <use xlink:href="#DejaVuSans-73" x="573.53125"/>
      <use xlink:href="#DejaVuSans-29" x="625.630859"/>
     </g>
    </g>
   </g>
   <g id="patch_3">
    <path d="M 59.195 460.24 
L 59.195 27.6 
" style="fill: none; stroke: #000000; stroke-width: 0.8; stroke-linejoin: miter; stroke-linecap: square"/>
   </g>
   <g id="patch_4">
    <path d="M 853.2 460.24 
L 853.2 27.6 
" style="fill: none; stroke: #000000; stroke-width: 0.8; stroke-linejoin: miter; stroke-linecap: square"/>
   </g>
   <g id="patch_5">
    <path d="M 59.195 460.24 
L 853.2 460.24 
" style="fill: none; stroke: #000000; stroke-width: 0.8; stroke-linejoin: miter; stroke-linecap: square"/>
   </g>
   <g id="patch_6">
    <path d="M 59.195 27.6 
L 853.2 27.6 
" style="fill: none; stroke: #000000; stroke-width: 0.8; stroke-linejoin: miter; stroke-linecap: square"/>
   </g>
   <g id="patch_7">
    <path d="M 95.286136 439.940993 
L 160.906384 439.940993 
L 160.906384 437.559876 
L 95.286136 437.559876 
z
" clip-path="url(#p2643796128)" style="fill: #ffffff; stroke: #000000; stroke-linejoin: miter"/>
   </g>
   <g id="patch_8">
    <path d="M 226.526632 439.733918 
L 292.14688 439.733918 
L 292.14688 437.674327 
L 226.526632 437.674327 
z
" clip-path="url(#p2643796128)" style="fill: #ffffff; stroke: #000000; stroke-linejoin: miter"/>
   </g>
   <g id="patch_9">
    <path d="M 357.767128 439.724104 
L 423.387376 439.724104 
L 423.387376 437.987577 
L 357.767128 437.987577 
z
" clip-path="url(#p2643796128)" style="fill: #ffffff; stroke: #000000; stroke-linejoin: miter"/>
   </g>
   <g id="patch_10">
    <path d="M 489.007624 439.916224 
L 554.627872 439.916224 
L 554.627872 437.862883 
L 489.007624 437.862883 
z
" clip-path="url(#p2643796128)" style="fill: #ffffff; stroke: #000000; stroke-linejoin: miter"/>
   </g>
   <g id="patch_11">
    <path d="M 620.24812 439.656099 
L 685.868368 439.656099 
L 685.868368 437.76037 
L 620.24812 437.76037 
z
" clip-path="url(#p2643796128)" style="fill: #ffffff; stroke: #000000; stroke-linejoin: miter"/>
   </g>
   <g id="patch_12">
    <path d="M 751.488616 439.244643 
L 817.108864 439.244643 
L 817.108864 438.375037 
L 751.488616 438.375037 
z
" clip-path="url(#p2643796128)" style="fill: #ffffff; stroke: #000000; stroke-linejoin: miter"/>
   </g>
   <g id="text_14">
    <!-- Race times by weather/tire cluster -->
    <g transform="translate(335.531719 21.6) scale(0.14 -0.14)">
     <defs>
      <path id="DejaVuSans-62" d="M 3116 1747 
Q 3116 2381 2855 2742 
Q 2594 3103 2138 3103 
Q 1681 3103 1420 2742 
Q 1159 2381 1159 1747 
Q 1159 1113 1420 752 
Q 1681 391 2138 391 
Q 2594 391 2855 752 
Q 3116 1113 3116 1747 
z
M 1159 2969 
Q 1341 3281 1617 3432 
Q 1894 3584 2278 3584 
Q 2916 3584 3314 3078 
Q 3713 2572 3713 1747 
Q 3713 922 3314 415 
Q 2916 -91 2278 -91 
Q 1894 -91 1617 61 
Q 1341 213 1159 525 
L 1159 0 
L 581 0 
L 581 4863 
L 1159 4863 
L 1159 2969 
z
" transform="scale(0.015625)"/>
      <path id="DejaVuSans-79" d="M 2059 -325 
Q 1816 -950 1584 -1140 
Q 1353 -1331 966 -1331 
L 506 -1331 
L 506 -850 
L 844 -850 
Q 1081 -850 1212 -737 
Q 1344 -625 1503 -206 
L 1606 56 
L 191 3500 
L 800 3500 
L 1894 763 
L 2988 3500 
L 3597 3500 
L 2059 -325 
z
" transform="scale(0.015625)"/>
      <path id="DejaVuSans-77" d="M 269 3500 
L 844 3500 
L 1563 769 
L 2278 3500 
L 2956 3500 
L 3675 769 
L 4391 3500 
L 4966 3500 
L 4050 0 
L 3372 0 
L 2619 2869 
L 1863 0 
L 1184 0 
L 269 3500 
z
" transform="scale(0.015625)"/>
     </defs>
     <use xlink:href="#DejaVuSans-52"/>
     <use xlink:href="#DejaVuSans-61" x="67.232422"/>
     <use xlink:href="#DejaVuSans-63" x="128.511719"/>
     <use xlink:href="#DejaVuSans-65" x="183.492188"/>
     <use xlink:href="#DejaVuSans-20" x="245.015625"/>
     <use xlink:href="#DejaVuSans-74" x="276.802734"/>
     <use xlink:href="#DejaVuSans-69" x="316.011719"/>
     <use xlink:href="#DejaVuSans-6d" x="343.794922"/>
     <use xlink:href="#DejaVuSans-65" x="441.207031"/>
     <use xlink:href="#DejaVuSans-73" x="502.730469"/>
     <use xlink:href="#DejaVuSans-20" x="554.830078"/>
     <use xlink:href="#DejaVuSans-62" x="586.617188"/>
     <use xlink:href="#DejaVuSans-79" x="650.09375"/>
     <use xlink:href="#DejaVuSans-20" x="709.273438"/>
     <use xlink:href="#DejaVuSans-77" x="741.060547"/>
     <use xlink:href="#DejaVuSans-65" x="822.847656"/>
     <use xlink:href="#DejaVuSans-61" x="884.371094"/>
     <use xlink:href="#DejaVuSans-74" x="945.650391"/>
     <use xlink:href="#DejaVuSans-68" x="984.859375"/>
     <use xlink:href="#DejaVuSans-65" x="1048.238281"/>
     <use xlink:href="#DejaVuSans-72" x="1109.761719"/>
     <use xlink:href="#DejaVuSans-2f" x="1150.875"/>
     <use xlink:href="#DejaVuSans-74" x="1184.566406"/>
     <use xlink:href="#DejaVuSans-69" x="1223.775391"/>
     <use xlink:href="#DejaVuSans-72" x="1251.558594"/>
     <use xlink:href="#DejaVuSans-65" x="1290.421875"/>
     <use xlink:href="#DejaVuSans-20" x="1351.945312"/>
     <use xlink:href="#DejaVuSans-63" x="1383.732422"/>
     <use xlink:href="#DejaVuSans-6c" x="1438.712891"/>
     <use xlink:href="#DejaVuSans-75" x="1466.496094"/>
     <use xlink:href="#DejaVuSans-73" x="1529.875"/>
     <use xlink:href="#DejaVuSans-74" x="1581.974609"/>
     <use xlink:href="#DejaVuSans-65" x="1621.183594"/>
     <use xlink:href="#DejaVuSans-72" x="1682.707031"/>
    </g>
   </g>
   <g id="line2d_17">
    <path d="M 108.410186 438.749334 
L 147.782335 438.749334 
" clip-path="url(#p2643796128)" style="fill: none; stroke: #000000; stroke-width: 2; stroke-linecap: square"/>
   </g>
   <g id="line2d_18">
    <path d="M 239.650682 438.731082 
L 279.022831 438.731082 
" clip-path="url(#p2643796128)" style="fill: none; stroke: #000000; stroke-width: 2; stroke-linecap: square"/>
   </g>
   <g id="line2d_19">
    <path d="M 370.891178 439.124147 
L 410.263326 439.124147 
" clip-path="url(#p2643796128)" style="fill: none; stroke: #000000; stroke-width: 2; stroke-linecap: square"/>
   </g>
   <g id="line2d_20">
    <path d="M 502.131674 439.241239 
L 541.503822 439.241239 
" clip-path="url(#p2643796128)" style="fill: none; stroke: #000000; stroke-width: 2; stroke-linecap: square"/>
   </g>
   <g id="line2d_21">
    <path d="M 633.372169 438.728591 
L 672.744318 438.728591 
" clip-path="url(#p2643796128)" style="fill: none; stroke: #000000; stroke-width: 2; stroke-linecap: square"/>
   </g>
   <g id="line2d_22">
    <path d="M 764.612665 438.858439 
L 803.984814 438.858439 
" clip-path="url(#p2643796128)" style="fill: none; stroke: #000000; stroke-width: 2; stroke-linecap: square"/>
   </g>
   <g id="PathCollection_1">
    <defs>
     <path id="m3fedfed9e1" d="M -0 4.242641 
L 4.242641 0 
L 0 -4.242641 
L -4.242641 -0 
z
" style="stroke: #ff0000"/>
    </defs>
    <g clip-path="url(#p2643796128)">
     <use xlink:href="#m3fedfed9e1" x="128.09626" y="427.065126" style="fill: #ff0000; stroke: #ff0000"/>
    </g>
   </g>
   <g id="PathCollection_2">
    <g clip-path="url(#p2643796128)">
     <use xlink:href="#m3fedfed9e1" x="259.336756" y="420.89267" style="fill: #ff0000; stroke: #ff0000"/>
    </g>
   </g>
   <g id="PathCollection_3">
    <g clip-path="url(#p2643796128)">
     <use xlink:href="#m3fedfed9e1" x="390.577252" y="419.88645" style="fill: #ff0000; stroke: #ff0000"/>
    </g>
   </g>
   <g id="PathCollection_4">
    <g clip-path="url(#p2643796128)">
     <use xlink:href="#m3fedfed9e1" x="521.817748" y="423.235961" style="fill: #ff0000; stroke: #ff0000"/>
    </g>
   </g>
   <g id="PathCollection_5">
    <g clip-path="url(#p2643796128)">
     <use xlink:href="#m3fedfed9e1" x="653.058244" y="426.281263" style="fill: #ff0000; stroke: #ff0000"/>
    </g>
   </g>
   <g id="PathCollection_6">
    <g clip-path="url(#p2643796128)">
     <use xlink:href="#m3fedfed9e1" x="784.29874" y="438.761241" style="fill: #ff0000; stroke: #ff0000"/>
    </g>
   </g>
  </g>
 </g>
 <defs>
  <clipPath id="p2643796128">
   <rect x="59.195" y="27.6" width="794.005" height="432.64"/>
  </clipPath>
 </defs>
</svg>
